PathFileType	4	(X/Y/Z)	RBDS016\RBDS016runT35.trc
DataRate	CameraRate	NumFrames	NumMarkers	Units	OrigDataRate	OrigDataStartFrame	OrigNumFrames
150.000000	150.000000	6	33	mm	150.000000	562	4500
Frame#	Time	L.ASIS			L.Heel.Bottom			L.Heel.Lateral			L.Heel.Top			L.Iliac.Crest			L.MT1			L.MT5			L.PSIS			L.Shank.Bottom.Lateral			L.Shank.Bottom.Medial			L.Shank.Top.Lateral			L.Shank.Top.Medial			L.Thigh.Bottom.Lateral			L.Thigh.Bottom.Medial			L.Thigh.Top.Lateral			L.Thigh.Top.Medial			R.ASIS			R.ASY			R.Heel.Bottom			R.Heel.Lateral			R.Heel.Top			R.Iliac.Crest			R.MT1			R.MT5			R.PSIS			R.Shank.Bottom.Lateral			R.Shank.Bottom.Medial			R.Shank.Top.Lateral			R.Shank.Top.Medial			R.Thigh.Bottom.Lateral			R.Thigh.Bottom.Medial			R.Thigh.Top.Lateral			R.Thigh.Top.Medial			
		X1	Y1	Z1	X2	Y2	Z2	X3	Y3	Z3	X4	Y4	Z4	X5	Y5	Z5	X6	Y6	Z6	X7	Y7	Z7	X8	Y8	Z8	X9	Y9	Z9	X10	Y10	Z10	X11	Y11	Z11	X12	Y12	Z12	X13	Y13	Z13	X14	Y14	Z14	X15	Y15	Z15	X16	Y16	Z16	X17	Y17	Z17	X18	Y18	Z18	X19	Y19	Z19	X20	Y20	Z20	X21	Y21	Z21	X22	Y22	Z22	X23	Y23	Z23	X24	Y24	Z24	X25	Y25	Z25	X26	Y26	Z26	X27	Y27	Z27	X28	Y28	Z28	X29	Y29	Z29	X30	Y30	Z30	X31	Y31	Z31	X32	Y32	Z32	X33	Y33	Z33	

563	3.746666666666667	2421.211175996866	940.6251592791884	919.0065982013965	2242.447534450577	149.0002057849983	979.1203264416246	2263.722582718846	155.9139575706599	931.1996068161588	2271.067975859191	187.1655605920646	972.2677029730423	2344.667642574546	1017.707002772466	863.0786690696402	2450.948539803704	70.79441940383857	966.6709275590629	2392.40274661596	78.01710562602756	875.3409986752131	2244.70223393563	984.6967048042447	986.318263574216	2342.25428361198	254.9069036916209	904.8759116453223	2329.969470643067	266.8453809802698	957.6058147433788	2366.224884806128	331.2125378189821	894.4935406407865	2355.216374688581	343.2728109558101	945.9260256183014	2477.055734426547	600.6086065751533	851.5415401720179	2420.930544707167	573.2751550914855	889.5103328366715	2420.598013080401	693.3329305156	834.835777656124	2365.867897369004	665.8005709894976	868.5333768921944	2427.965245206966	913.5543496838206	1137.813326184771	2008.20367971487	95.21939089355368	1078.407872150537	1844.796183681296	185.7358360227561	1028.145354606976	1868.077494317475	181.7598723971454	1077.143403950276	1885.040249947568	215.3116627926571	1039.421429155309	2391.134528928755	990.5398721212936	1180.00459234592	2013.139551490994	54.40776232357021	1034.484561004565	1955.772815841122	62.88326461338444	1129.127075623891	2249.911913785159	983.7027611957269	1086.31630282612	1958.968239151261	250.0878366036893	1114.773336435462	1935.48284011706	274.2150969396654	1076.115021734072	1996.75577405742	323.8370364343884	1135.058025890952	1968.856121467988	345.6598638489939	1095.287608678279	2187.019545116103	607.001810557622	1174.732300092307	2136.642573329495	634.0590462411911	1130.231869509048	2221.970072840105	709.8535946528867	1195.337445221187	2175.342736045141	734.3635172318492	1151.715242974055	
564	3.753333333333333	2422.334106545979	945.047175546423	920.2637810375423	2270.475420614193	129.3013934503469	980.6324254925858	2290.815587589712	137.9787199189853	932.6028634713408	2295.62293029474	169.7203528014409	973.5407150034429	2347.128549304129	1023.543514413875	863.8224619340626	2484.624670831656	69.30389724515834	967.2064063165282	2425.316051867529	71.50394743214457	876.1207384936998	2246.612465312467	989.8306644844931	986.5613208395422	2360.840512076413	243.5855825440771	905.889634440126	2348.092473039447	254.4899906682694	958.7634324294413	2378.69947573328	321.4412286689427	895.3756064305649	2367.335079460912	332.5391677091683	946.9648771615814	2475.546138247567	602.5028069090027	852.869541207735	2418.399767985505	575.6026133095072	889.6993271018491	2420.28386405428	695.8914966110127	835.8130987181236	2364.836237026407	668.9600458844664	868.8468690460916	2429.279048226969	916.0711504983669	1137.268913425551	1992.53630822154	100.6276139226344	1080.707857403447	1834.709539333243	201.3506500655839	1029.359233651316	1857.397701271193	195.6761868136547	1078.571509324879	1876.699782810169	228.4462984838182	1041.258539790175	2396.133832412263	993.9703982555685	1178.066375368959	1995.314695208443	59.47909881654742	1036.535701172429	1937.643609039708	70.40816594385298	1130.460963177243	2252.012962917966	988.5778390567032	1086.755620103216	1948.562290747132	259.5002763054191	1116.775940773369	1925.828945053308	283.5348059756758	1077.565492870347	1986.915037595569	332.9872715832336	1136.7720413764	1959.858007819793	354.7399818159913	1096.370671803097	2181.848198088974	614.0140160180474	1175.380604725144	2132.606266257404	641.8377465245081	1130.118059727655	2218.918103369857	716.1920578283382	1195.534439670047	2173.432437800894	741.3904022996708	1151.118807166241	
565	3.76	2423.332664205844	948.9338493259024	921.4036451221162	2299.526188892212	111.0694527438526	981.7169754550621	2318.873855338562	121.3638231491293	933.6123061665129	2320.982038743307	153.4020719023414	974.3913820944333	2349.352951859058	1028.803691339004	864.5468874839511	2517.570585538669	69.91094709690354	967.8459832313014	2458.221498497843	66.85239403612103	876.8663339581987	2248.353907827882	994.6064422008671	986.8318586680151	2379.708601158631	233.0301996634081	906.6540792693335	2366.501169379641	242.8856552790566	959.6640758566731	2391.341306150694	311.9466252815846	896.0388655872094	2379.665699767044	322.0656795756119	947.7765621254551	2472.896058549888	603.3413421886162	854.1703563716634	2414.810872378656	577.0879041962685	890.0601973927792	2419.10570927472	697.5475524806764	836.8791566593534	2363.026326459572	671.4353354019825	869.4814372733722	2430.506193683395	918.5381478856989	1136.823401297357	1976.974530921438	107.1311978912095	1083.106807720741	1825.015290621605	216.8168493484796	1030.19973810755	1846.983844442244	209.8292602404798	1079.658568280207	1868.514416528554	241.5618708560415	1042.635881918254	2400.357801260244	997.3604317054646	1176.286189550163	1977.92584410091	65.64974577940197	1038.936468522479	1919.901217364703	79.2334562624671	1131.986869966908	2253.92381872486	993.1980791049386	1087.169970013572	1938.584584423152	269.0468599846117	1118.461360095949	1916.675653798135	293.1107984657441	1078.78092347876	1977.859856471234	342.0433194569085	1138.245915246592	1951.694426830688	363.8761503361092	1097.279451216092	2177.594864822228	620.332322104238	1175.953817858939	2129.509791267638	648.6412679384958	1129.799220124802	2216.31863602556	721.9827645806705	1195.586339415823	2171.972258486928	747.620791909451	1150.278406764023	
566	3.766666666666667	2424.211849845179	952.1988209305779	922.4113967157967	2329.238562034353	94.56379017435292	982.4495341445175	2347.55129646892	106.3182356615966	934.2953822254696	2346.824138153648	138.4547452598516	974.8883739615026	2351.303225444482	1033.366363811193	865.2137505783123	2549.417325352277	72.67117499862697	968.5775378260232	2490.739284934319	64.18597579869137	877.5886021361703	2249.910270604696	998.9569585649015	987.1093678499128	2398.632021458114	223.4407364134836	907.2072084011644	2384.967261527392	232.252179659702	960.3401882974096	2404.011966404626	302.9316708177832	896.5134019814857	2392.053404392421	312.0804368030313	948.3831016041395	2469.161963331729	603.1593458769929	855.3596894652417	2410.301966822281	577.7836026040192	890.6263807242266	2417.070750418403	698.2999876496768	837.9423308268339	2360.516605426423	673.2275856071118	870.4307431419612	2431.643339814606	920.9391899338166	1136.49230977588	1961.478430882251	114.7304201549534	1085.59956674368	1815.547979925155	232.0660912912608	1030.617596417375	1836.706307962348	224.1710295419085	1080.358053756174	1860.317976542547	254.624988954892	1043.502742087976	2403.723400145788	1000.719572819741	1174.723464468229	1960.907432619817	72.86730658947312	1041.691414505357	1902.525528018576	89.3621213312489	1133.71237025304	2255.623431846536	997.5109522843713	1087.538825111417	1928.922081957658	278.7696815706098	1119.796189460478	1907.925973418808	302.9885939442773	1079.724587820224	1969.503506076014	351.0144755639078	1139.444466760634	1944.288683160916	373.0831963278978	1097.985778344216	2174.304990162775	625.8174691257442	1176.462371297022	2127.347825536475	654.3417824973394	1129.33040279694	2214.22203211242	727.102604777677	1195.513816334715	2170.965685569448	752.9434582377474	1149.259439709522	
567	3.773333333333333	2424.9761254273	954.7678105688701	923.2735599583398	2359.180599784915	79.99667259060045	982.9510662411354	2376.424079748499	93.04375129822442	934.7608558692414	2372.768813530917	125.0847413024258	975.1423648908112	2352.950914884018	1037.121040543989	865.7889136254897	2579.78106677466	77.54125874174458	969.3721927946143	2522.429671112727	63.54065398126782	878.3006188105776	2251.268751365301	1002.806893857081	987.371771863282	2417.345701914861	214.9834028920078	907.611699152789	2403.232549410317	222.7741166480772	960.8515540565495	2416.547390419526	294.5819942475258	896.8532028196503	2404.322800597545	302.792508385379	948.8337045062464	2464.45828676758	602.0321714974915	856.3576415394944	2405.060979725481	577.7663397385306	891.4184410334084	2414.227002206421	698.1801656473713	838.9067426171094	2357.417859123612	674.357160575842	871.6666560241631	2432.687496378304	923.2503610230373	1136.282295027661	1946.053078800973	123.3724795036627	1088.172161284201	1806.212892558388	247.0768894703946	1030.600592145635	1826.510316428541	238.6701734804056	1080.654440107015	1852.030512845039	267.6254504183219	1043.847798102142	2406.184395097393	1004.030113966765	1173.427195569107	1944.20521774418	81.04314421163299	1044.778916034227	1885.523694338881	100.7449860430179	1135.631721490923	2257.094165394151	1001.455670550314	1087.842958381731	1919.518821501347	288.7021847831884	1120.775090176779	1899.536310657008	313.1946602606793	1080.381845458853	1961.790931930267	359.9109568977697	1140.354362906915	1937.595530296495	382.364714400064	1098.477022132579	2172.018334114206	630.3404850865429	1176.92483267606	2126.109520804301	658.8351389180793	1128.781941204172	2212.68563442693	731.4263819574738	1195.358794229305	2170.42327606532	757.2566263245296	1148.154388764649	
568	3.78	2425.628052088976	956.5845024503917	923.9783705778393	2388.858682503953	67.51071981688159	983.3739265988623	2405.001740649088	81.67157239071045	935.146022554459	2398.386285109159	113.440485080567	975.2924448052671	2354.276899748467	1039.973489161517	866.2470318691235	2608.28066346567	84.35847348626676	970.190577423419	2552.812495721723	64.83870979515451	879.0191365292404	2252.41968875226	1006.074531452241	987.5981304022739	2435.556385385444	207.7705540878966	907.9470879705367	2421.017055772451	214.5814669057028	961.2769497318053	2428.763627942078	287.0478064287236	897.1281916609539	2416.284653171254	294.3736719640298	949.1970492375394	2458.959496126033	600.075342751463	857.0990352265915	2399.317842459478	577.1308760237051	892.4375224819232	2410.667592815937	697.2543422078725	839.6862779231984	2353.868904871631	674.8620555445428	873.141024557796	2433.636516757639	925.4398130095532	1136.192679093202	1930.751552945006	132.9582476052472	1090.800122307222	1796.999592258802	261.8715996271832	1030.176837334883	1816.424810341922	253.3091841707513	1080.567017660451	1843.667577486259	280.5723975982612	1043.702910020811	2407.731435081753	1007.246184043299	1172.434852084244	1927.788253839384	90.06553052442054	1048.148638138133	1868.936685580387	113.2831255397923	1137.722910311395	2258.322696636631	1004.963038278367	1088.066860523818	1910.384112737031	298.8593814664199	1121.421672292504	1891.521784246248	323.7283105379029	1080.764109115207	1954.70744559179	368.735163828609	1140.986124018007	1931.606447103301	391.7061136445511	1098.76042809078	2170.761432605726	633.7882037270698	1177.36303062763	2125.776687172063	662.044747601113	1128.228832371949	2211.764550341567	734.8335654149035	1195.17812850893	2170.357745827333	760.473245683765	1147.071420555539	
